<?xml version="1.0" encoding="UTF-8" standalone="no"?>
<!-- Created with Inkscape (http://www.inkscape.org/) -->

<svg
   xmlns:dc="http://purl.org/dc/elements/1.1/"
   xmlns:cc="http://creativecommons.org/ns#"
   xmlns:rdf="http://www.w3.org/1999/02/22-rdf-syntax-ns#"
   xmlns:svg="http://www.w3.org/2000/svg"
   xmlns="http://www.w3.org/2000/svg"
   xmlns:sodipodi="http://sodipodi.sourceforge.net/DTD/sodipodi-0.dtd"
   xmlns:inkscape="http://www.inkscape.org/namespaces/inkscape"
   width="210mm"
   height="297mm"
   viewBox="0 0 744.09448819 1052.3622047"
   id="svg2"
   version="1.1"
   inkscape:version="0.91 r13725"
   sodipodi:docname="oled_adapter.svg">
  <defs
     id="defs4" />
  <sodipodi:namedview
     id="base"
     pagecolor="#ffffff"
     bordercolor="#666666"
     borderopacity="1.0"
     inkscape:pageopacity="0.0"
     inkscape:pageshadow="2"
     inkscape:zoom="2"
     inkscape:cx="222.70188"
     inkscape:cy="54.690034"
     inkscape:document-units="px"
     inkscape:current-layer="layer1"
     showgrid="false"
     inkscape:window-width="2000"
     inkscape:window-height="1280"
     inkscape:window-x="-8"
     inkscape:window-y="-8"
     inkscape:window-maximized="1" />
  <metadata
     id="metadata7">
    <rdf:RDF>
      <cc:Work
         rdf:about="">
        <dc:format>image/svg+xml</dc:format>
        <dc:type
           rdf:resource="http://purl.org/dc/dcmitype/StillImage" />
        <dc:title />
      </cc:Work>
    </rdf:RDF>
  </metadata>
  <g
     inkscape:label="Layer 1"
     inkscape:groupmode="layer"
     id="layer1">
    <path
       style="fill:none;fill-opacity:1;stroke:#ff0000;stroke-width:0.99999994;stroke-miterlimit:4;stroke-dasharray:none;stroke-dashoffset:0;stroke-opacity:1"
       d="m 27.460235,1033.3489 a 9.2440939,9.2440939 0 0 1 -9.244094,9.2441 9.2440939,9.2440939 0 0 1 -9.2440941,-9.2441 9.2440939,9.2440939 0 0 1 9.2440941,-9.2441 9.2440939,9.2440939 0 0 1 9.244094,9.2441 z"
       id="path4136-3" />
    <path
       style="fill:none;fill-opacity:1;stroke:#ff0000;stroke-width:0.99999994;stroke-miterlimit:4;stroke-dasharray:none;stroke-dashoffset:0;stroke-opacity:1"
       d="m 385.33427,1033.3489 a 9.2440939,9.2440939 0 0 1 -9.24409,9.2441 9.2440939,9.2440939 0 0 1 -9.24409,-9.2441 9.2440939,9.2440939 0 0 1 9.24409,-9.2441 9.2440939,9.2440939 0 0 1 9.24409,9.2441 z"
       id="path4136-3-5" />
    <path
       style="fill:none;fill-opacity:1;stroke:#ff0000;stroke-width:0.99999994;stroke-miterlimit:4;stroke-dasharray:none;stroke-dashoffset:0;stroke-opacity:1"
       d="m 385.33427,857.77808 a 9.2440939,9.2440939 0 0 1 -9.24409,9.24409 9.2440939,9.2440939 0 0 1 -9.24409,-9.24409 9.2440939,9.2440939 0 0 1 9.24409,-9.2441 9.2440939,9.2440939 0 0 1 9.24409,9.2441 z"
       id="path4136-3-9" />
    <path
       style="fill:none;fill-opacity:1;stroke:#ff0000;stroke-width:0.99999994;stroke-miterlimit:4;stroke-dasharray:none;stroke-dashoffset:0;stroke-opacity:1"
       d="m 27.460235,857.77808 a 9.2440939,9.2440939 0 0 1 -9.244094,9.24409 9.2440939,9.2440939 0 0 1 -9.2440941,-9.24409 9.2440939,9.2440939 0 0 1 9.2440941,-9.2441 9.2440939,9.2440939 0 0 1 9.244094,9.2441 z"
       id="path4136-3-91" />
    <path
       style="fill:none;fill-opacity:1;stroke:#ff0000;stroke-width:0.99999994;stroke-miterlimit:4;stroke-dasharray:none;stroke-dashoffset:0;stroke-opacity:1"
       d="m 53.681118,1006.4197 a 3.9291339,3.9291339 0 0 1 -3.929134,3.9291 3.9291339,3.9291339 0 0 1 -3.929134,-3.9291 3.9291339,3.9291339 0 0 1 3.929134,-3.9291 3.9291339,3.9291339 0 0 1 3.929134,3.9291 z"
       id="path4136"
       inkscape:connector-curvature="0" />
    <path
       style="fill:none;fill-opacity:1;stroke:#ff0000;stroke-width:0.99999994;stroke-miterlimit:4;stroke-dasharray:none;stroke-dashoffset:0;stroke-opacity:1"
       d="m 53.681118,871.77408 a 3.9291339,3.9291339 0 0 1 -3.929134,3.92913 3.9291339,3.9291339 0 0 1 -3.929134,-3.92913 3.9291339,3.9291339 0 0 1 3.929134,-3.92914 3.9291339,3.9291339 0 0 1 3.929134,3.92914 z"
       id="path4136-9"
       inkscape:connector-curvature="0" />
    <path
       style="fill:none;fill-opacity:1;stroke:#ff0000;stroke-width:0.99999994;stroke-miterlimit:4;stroke-dasharray:none;stroke-dashoffset:0;stroke-opacity:1"
       d="m 348.48425,1006.4197 a 3.9291339,3.9291339 0 0 1 -3.92914,3.9291 3.9291339,3.9291339 0 0 1 -3.92913,-3.9291 3.9291339,3.9291339 0 0 1 3.92913,-3.9291 3.9291339,3.9291339 0 0 1 3.92914,3.9291 z"
       id="path4136-1"
       inkscape:connector-curvature="0" />
    <path
       style="fill:none;fill-opacity:1;stroke:#ff0000;stroke-width:0.99999994;stroke-miterlimit:4;stroke-dasharray:none;stroke-dashoffset:0;stroke-opacity:1"
       d="m 348.48425,871.77408 a 3.9291339,3.9291339 0 0 1 -3.92914,3.92913 3.9291339,3.9291339 0 0 1 -3.92913,-3.92913 3.9291339,3.9291339 0 0 1 3.92913,-3.92914 3.9291339,3.9291339 0 0 1 3.92914,3.92914 z"
       id="path4136-94"
       inkscape:connector-curvature="0" />
    <path
       style="fill:none;fill-opacity:1;stroke:#0000ff;stroke-width:1;stroke-miterlimit:4;stroke-dasharray:none;stroke-dashoffset:0;stroke-opacity:1"
       d="m 341.92914,897.25436 0,76.95276 -289.55118,0 0,-76.95276 z"
       id="rect4236"
       inkscape:connector-curvature="0" />
    <path
       style="fill:none;fill-opacity:1;stroke:#00ff00;stroke-width:1;stroke-miterlimit:4;stroke-dasharray:none;stroke-dashoffset:0;stroke-opacity:1"
       d="M 11.130859,839.26367 C 5.2418832,839.26367 0.5,844.00556 0.5,849.89453 l 0,191.33787 c 0,5.889 4.7418832,10.6289 10.630859,10.6289 l 372.046871,0 c 5.88898,0 10.62891,-4.7399 10.62891,-10.6289 l 0,-191.33787 c 0,-5.88897 -4.73993,-10.63086 -10.62891,-10.63086 l -92.12695,0 0,44.41231 -187.79492,0 0,-44.41231 z"
       id="rect4246"
       inkscape:connector-curvature="0"
       sodipodi:nodetypes="ssssssssccccs" />
  </g>
</svg>
